<svg width="281" height="280" viewBox="0 0 281 280" fill="none" xmlns="http://www.w3.org/2000/svg">
<rect x="0.544983" width="280" height="280" rx="58.8" fill="#EFF2FF"/>
<path d="M64.5463 228.191C58.652 228.191 53.4625 223.928 52.5014 217.931C51.4306 211.286 55.9703 205.033 62.6334 203.965C80.774 201.062 112.772 193.422 143.232 181.455C186.167 164.587 198.797 150.1 202.513 142.962C204.856 138.453 204.948 134.674 202.815 130.329C202.147 128.969 200.115 124.825 189.297 123.684C180.959 122.807 169.811 123.967 156.183 127.134C139.452 131.023 122.107 137.193 108.433 142.542C106.319 143.391 104.26 144.222 102.264 145.025C100.635 145.682 99.061 146.312 97.5599 146.915C94.7775 148.056 92.3063 149.096 90.1921 149.982C88.8649 150.539 87.6842 151.031 86.6683 151.451C80.4902 154.007 73.3969 151.141 70.7518 145.007C68.1067 138.873 70.8983 131.771 77.0122 129.06C80.1974 127.645 83.9774 126.094 88.2425 124.378C91.5924 122.999 95.3725 121.466 99.4728 119.859C112.168 114.729 126.702 108.641 139.214 101.895C159.615 90.8867 163.825 83.8672 164.695 81.357C165.033 80.3712 165.061 79.6683 164.292 78.3447C163.706 77.3315 160.887 76.2727 155.926 76.1814C149.593 76.0627 140.843 77.5415 130.638 80.4442C113.266 85.3916 94.7775 93.616 87.428 97.2763C81.3872 100.279 74.0559 97.8331 71.0356 91.8178C68.0243 85.7932 70.4772 78.4817 76.5088 75.4694C77.4607 74.9948 100.049 63.8129 123.92 57.0125C136.596 53.3978 147.515 51.6543 156.366 51.8095C165.921 51.9829 178.726 54.6027 185.416 66.0949C189.681 73.4156 190.505 81.4209 187.796 89.271C186.652 92.5936 184.904 95.8341 182.515 99.0289C185.782 98.9924 188.894 99.1385 191.832 99.4488C202.898 100.617 217.597 105.053 224.736 119.622C230.264 130.895 230.072 142.844 224.178 154.19C214.787 172.254 190.56 189.059 152.156 204.148C119.874 216.826 85.8262 224.941 66.4775 228.045C65.8185 228.145 65.1687 228.2 64.528 228.2L64.5463 228.191Z" fill="#004CFC"/>
</svg>
