<svg width="16" height="17" viewBox="0 0 16 17" fill="none" xmlns="http://www.w3.org/2000/svg">
<path fill-rule="evenodd" clip-rule="evenodd" d="M7.99967 15.1666C11.6816 15.1666 14.6663 12.1818 14.6663 8.49992C14.6663 4.81802 11.6816 1.83325 7.99967 1.83325C4.31777 1.83325 1.33301 4.81802 1.33301 8.49992C1.33301 12.1818 4.31777 15.1666 7.99967 15.1666Z" stroke="#C7C7C7" stroke-width="1.33333" stroke-linecap="round" stroke-linejoin="round"/>
<path d="M1.33301 8.5H14.6663" stroke="#C7C7C7" stroke-width="1.33333" stroke-linecap="round" stroke-linejoin="round"/>
<path fill-rule="evenodd" clip-rule="evenodd" d="M7.99967 15.1666C9.47244 15.1666 10.6663 12.1818 10.6663 8.49992C10.6663 4.81802 9.47244 1.83325 7.99967 1.83325C6.52691 1.83325 5.33301 4.81802 5.33301 8.49992C5.33301 12.1818 6.52691 15.1666 7.99967 15.1666Z" stroke="#C7C7C7" stroke-width="1.33333" stroke-linecap="round" stroke-linejoin="round"/>
<path d="M3.28613 3.88062C4.49256 5.08705 6.15923 5.83325 8.00016 5.83325C9.84113 5.83325 11.5078 5.08705 12.7142 3.88062" stroke="#C7C7C7" stroke-width="1.33333" stroke-linecap="round" stroke-linejoin="round"/>
<path d="M12.7142 13.1194C11.5078 11.9129 9.84113 11.1667 8.00016 11.1667C6.15923 11.1667 4.49256 11.9129 3.28613 13.1194" stroke="#C7C7C7" stroke-width="1.33333" stroke-linecap="round" stroke-linejoin="round"/>
</svg>
