<svg width="16" height="17" viewBox="0 0 16 17" fill="none" xmlns="http://www.w3.org/2000/svg">
<path d="M8.00016 15.1666C9.8411 15.1666 11.5078 14.4204 12.7142 13.214C13.9206 12.0075 14.6668 10.3409 14.6668 8.49992C14.6668 6.65899 13.9206 4.99232 12.7142 3.78587C11.5078 2.57945 9.8411 1.83325 8.00016 1.83325C6.15923 1.83325 4.49256 2.57945 3.28612 3.78587C2.07969 4.99232 1.3335 6.65899 1.3335 8.49992C1.3335 10.3409 2.07969 12.0075 3.28612 13.214C4.49256 14.4204 6.15923 15.1666 8.00016 15.1666Z" stroke="white" stroke-opacity="0.8" stroke-width="1.33333" stroke-linejoin="round"/>
<path fill-rule="evenodd" clip-rule="evenodd" d="M7.99984 4.16675C8.46007 4.16675 8.83317 4.53985 8.83317 5.00008C8.83317 5.46031 8.46007 5.83341 7.99984 5.83341C7.5396 5.83341 7.1665 5.46031 7.1665 5.00008C7.1665 4.53985 7.5396 4.16675 7.99984 4.16675Z" fill="white" fill-opacity="0.8"/>
<path d="M8.16667 11.8334V7.16675H7.83333H7.5" stroke="white" stroke-opacity="0.8" stroke-width="1.33333" stroke-linecap="round" stroke-linejoin="round"/>
<path d="M7 11.8333H9.33333" stroke="white" stroke-opacity="0.8" stroke-width="1.33333" stroke-linecap="round" stroke-linejoin="round"/>
</svg>
