<svg width="100" height="24" viewBox="0 0 100 24" fill="none" xmlns="http://www.w3.org/2000/svg">
<path d="M38.1983 17.6201L33.3875 4.76815H36.3921L38.8236 11.2636C39.1188 12.0625 39.362 12.8614 39.6398 13.9729C39.9698 12.7398 40.213 12.0278 40.4909 11.2636L42.8876 4.76815H45.8227L41.0987 17.6201H38.1983ZM49.4783 17.8459C46.8558 17.8459 44.9801 15.9355 44.9801 13.2609C44.9801 10.5515 46.8037 8.65848 49.4262 8.65848C52.1529 8.65848 53.8549 10.4473 53.8549 13.2782V13.9556L47.5505 13.9903C47.7068 15.1366 48.3494 15.675 49.5304 15.675C50.5377 15.675 51.2498 15.3102 51.4408 14.685H53.8896C53.577 16.6128 51.8576 17.8459 49.4783 17.8459ZM49.4435 10.8294C48.3841 10.8294 47.7936 11.2983 47.5852 12.3404H51.1977C51.1977 11.4199 50.5203 10.8294 49.4435 10.8294ZM55.0566 8.50217C55.0566 6.17492 57.0192 4.52501 59.7806 4.52501C62.542 4.52501 64.2788 6.05335 64.2788 8.4848H61.4826C61.4826 7.58169 60.8053 7.02593 59.7459 7.02593C58.5996 7.02593 57.8702 7.54696 57.8702 8.39797C57.8702 9.1795 58.2696 9.56159 59.1727 9.75263L61.1005 10.1521C63.3931 10.621 64.4872 11.7152 64.4872 13.7472C64.4872 16.2307 62.542 17.8459 59.5896 17.8459C56.7239 17.8459 54.8656 16.3002 54.8656 13.8861H57.6618C57.6618 14.8239 58.3565 15.345 59.6069 15.345C60.8748 15.345 61.6737 14.8413 61.6737 14.025C61.6737 13.313 61.3437 12.9483 60.4927 12.7746L58.5301 12.3751C56.2376 11.9062 55.0566 10.6036 55.0566 8.50217ZM67.9846 17.6201L65.1884 8.93636H68.002L68.8009 11.7673C69.0093 12.5141 69.2003 13.3651 69.3393 14.2335C69.4956 13.313 69.5824 12.983 69.9645 11.7673L70.8502 8.93636H73.5943L74.4106 11.7673C74.4974 12.0625 74.9142 13.6777 75.0011 14.2335C75.1053 13.6082 75.5221 12.0799 75.6089 11.7673L76.4426 8.93636H79.2735L76.2342 17.6201H73.7506L72.917 14.8587C72.4828 13.4345 72.257 12.4099 72.2049 12.0451C72.1354 12.4099 71.9791 13.0872 71.4234 14.9108L70.5897 17.6201H67.9846ZM82.6369 17.8459C80.796 17.8459 79.6497 16.7691 79.6497 15.0671C79.6497 13.4693 80.7786 12.4793 82.8627 12.323L85.2942 12.132V11.993C85.2942 11.142 84.7731 10.6905 83.8179 10.6905C82.689 10.6905 82.0812 11.1247 82.0812 11.9062H79.8581C79.8581 9.94367 81.4733 8.65848 83.9569 8.65848C86.4752 8.65848 87.8993 10.0652 87.8993 12.5488V17.6201H85.5373L85.3636 16.4739C85.0858 17.2728 83.9395 17.8459 82.6369 17.8459ZM83.5748 15.866C84.5995 15.866 85.3115 15.3623 85.3115 14.3724V13.9035L83.9569 14.025C82.7932 14.1292 82.3764 14.3898 82.3764 14.9455C82.3764 15.5707 82.7585 15.866 83.5748 15.866ZM89.8176 21.7883V8.93636H92.3359L92.4748 9.99578C92.9611 9.19687 94.0553 8.65848 95.2884 8.65848C97.7024 8.65848 99.3871 10.3431 99.3871 13.1393C99.3871 15.8834 97.8935 17.8633 95.3057 17.8633C94.1074 17.8633 92.9958 17.4117 92.4922 16.7517V21.7883H89.8176ZM92.5096 13.2782C92.5096 14.5808 93.3779 15.4492 94.6284 15.4492C95.8962 15.4492 96.6951 14.5634 96.6951 13.2782C96.6951 11.993 95.8962 11.1073 94.6284 11.1073C93.3779 11.1073 92.5096 11.9757 92.5096 13.2782Z" fill="white"/>
<path fill-rule="evenodd" clip-rule="evenodd" d="M0 7.00717V7.38251L6.66002 3.05744V2.6821L0 7.00717ZM6.66002 1.03761L0 5.36268V5.13825L6.66002 0.804077V1.03761ZM6.66002 4.27558L0 8.60065V9.24879L6.66002 4.92372V4.27558ZM6.66002 5.65461L0 9.97968V11.0761L6.66002 6.75101V5.65461ZM6.66002 7.23827L0 11.5633V12.9955L6.66002 8.67046V7.23827ZM6.66002 8.975L0 13.3001V14.9561L6.66002 10.631L6.66002 8.975ZM6.66002 10.8137L0 15.1388V17.2743C0 18.1207 0.427922 18.9097 1.13734 19.3714L4.74438 21.7188L2.41041 23.279C2.33588 23.3288 2.38984 23.4125 2.49668 23.4127L14.6886 23.4429C14.7909 23.4432 14.8734 23.3884 14.8708 23.3218L14.5665 15.4874C14.5638 15.4182 14.4351 15.3847 14.3599 15.4337L11.3832 17.3708L7.79736 15.0372C7.08794 14.5756 6.66002 13.7865 6.66002 12.9401V10.8137Z" fill="white"/>
<path fill-rule="evenodd" clip-rule="evenodd" d="M25.3535 16.9929L25.3535 16.6178L18.6935 20.9428L18.6935 21.3179L25.3535 16.9929ZM18.6935 22.9624L25.3535 18.6373L25.3535 18.8619L18.6935 23.196L18.6935 22.9624ZM18.6935 19.7247L25.3535 15.3996L25.3535 14.7512L18.6935 19.0763L18.6935 19.7247ZM18.6935 18.3454L25.3535 14.0204L25.3535 12.9243L18.6935 17.2494L18.6935 18.3454ZM18.6935 16.7621L25.3535 12.437L25.3535 11.0047L18.6935 15.3298L18.6935 16.7621ZM18.6935 15.0253L25.3535 10.7002L25.3535 9.04397L18.6935 13.369L18.6935 15.0253ZM18.6935 13.1863L25.3535 8.86125L25.3535 6.72584C25.3535 5.87942 24.9256 5.09039 24.2162 4.62872L20.6091 2.28135L22.9431 0.721128C23.0176 0.671308 22.9637 0.587665 22.8568 0.5874L10.6649 0.557175C10.5626 0.556922 10.4801 0.611741 10.4827 0.678328L10.787 8.51273C10.7897 8.58193 10.9184 8.61539 10.9936 8.56644L13.9703 6.6293L17.5562 8.96288C18.2656 9.42456 18.6935 10.2136 18.6935 11.06L18.6935 13.1863Z" fill="white"/>
</svg>
