<svg width="18" height="20" viewBox="0 0 18 20" fill="none" xmlns="http://www.w3.org/2000/svg">
<path d="M6.82477 18.7704L6.82477 1.22974C6.82477 0.711768 6.40524 0.292236 5.88727 0.292236C5.6904 0.292236 5.50758 0.353174 5.35758 0.456299C5.25211 0.50083 5.15368 0.568799 5.06696 0.653174L0.937271 4.78521C0.754459 4.96802 0.663052 5.20708 0.663052 5.44849C0.663052 5.68989 0.754459 5.92896 0.937271 6.11177C1.3029 6.47739 1.89586 6.47739 2.26383 6.11177L4.94977 3.42114L4.94977 18.768C4.94977 19.286 5.3693 19.7055 5.88727 19.7055C6.40524 19.7055 6.82477 19.2883 6.82477 18.7704ZM11.1748 1.22974V18.7704C11.1748 19.2883 11.5943 19.7079 12.1123 19.7079C12.3091 19.7079 12.492 19.6469 12.642 19.5438C12.7193 19.511 12.7943 19.4641 12.8646 19.4079L16.9943 16.0282C17.3951 15.7001 17.4537 15.1094 17.1256 14.7086C16.7974 14.3079 16.2068 14.2493 15.806 14.5774L13.0498 16.8344V1.22974C13.0498 0.711768 12.6302 0.292236 12.1123 0.292236C11.5943 0.292236 11.1748 0.711768 11.1748 1.22974Z" fill="white"/>
</svg>
